#!OML:ASF X:\für Bonn\!DataBase\2005_08_11_Bastian_Final\c3d\Bastian.ASF
:FULLY-SPECIFIED
:DEGREES
63
root 3.86219 21.5765 -7.9372 719.829 2.59785 -4.48978
lowerback 11.9261 -2.80396 2.04817
upperback 2.19016 -3.41437 0.806333
thorax -4.45117 -1.70778 0.221397
lowerneck -12.3661 -3.6667 -1.26326
upperneck 2.81613 -5.31299 9.2977
head 3.14269 -2.24846 2.69638
rclavicle -1.6201e-014 8.34896e-015
rhumerus -62.6248 9.81913 -88.7606
rradius 100.203
rwrist 1.68193
rhand -8.71966 23.001
rfingers 7.12502
rthumb 17.2163 -6.25637
lclavicle -1.6201e-014 8.34896e-015
lhumerus -47.2334 3.94209 76.3428
lradius 102.925
lwrist 204.798
lhand -27.0072 12.7435
lfingers 7.12502
lthumb -0.426995 42.7229
rfemur -25.8232 0.353062 22.376
rtibia 45.5107
rfoot -12.8616 -1.18961
rtoes -15.4982
lfemur -21.4211 0.0871047 -13.9952
ltibia 32.2948
lfoot 10.9442 -7.95707
ltoes -35.3173
64
root 3.8555 21.3628 -7.74205 719.781 2.61274 -4.64345
lowerback 12.1266 -2.84075 2.34641
upperback 2.18389 -3.41631 0.845717
thorax -4.5831 -1.71263 0.106697
lowerneck -12.3106 -3.7014 -1.27701
upperneck 2.45695 -5.32763 9.07018
head 3.34698 -2.29139 2.91222
rclavicle -8.15017e-015 3.57812e-015
rhumerus -62.163 9.07968 -88.8322
rradius 97.3322
rwrist 1.7381
rhand -9.0907 22.6738
rfingers 7.12502
rthumb 16.8591 -6.61433
lclavicle -8.15017e-015 3.57812e-015
lhumerus -47.0674 4.51828 76.249
lradius 99.9441
lwrist 204.058
lhand -26.865 12.7852
lfingers 7.12502
lthumb -0.289653 42.7648
rfemur -26.0826 0.319978 22.3198
rtibia 45.3461
rfoot -15.2701 -1.32084
rtoes -14.148
lfemur -21.7619 0.166634 -13.8836
ltibia 32.3359
lfoot 10.8336 -8.61185
ltoes -36.2038
65
root 3.84982 21.1341 -7.54462 719.7 2.59982 -4.77525
lowerback 12.3327 -2.8647 2.64828
upperback 2.17501 -3.39977 0.870437
thorax -4.72153 -1.7089 -0.0279441
lowerneck -12.285 -3.72233 -1.16687
upperneck 2.34691 -5.35593 8.96757
head 3.296 -2.31194 2.85278
rclavicle -3.61788e-014 1.63003e-014
rhumerus -61.6703 8.29075 -88.8807
rradius 94.2588
rwrist 2.04332
rhand -9.8044 22.5217
rfingers 7.12502
rthumb 16.172 -6.82366
lclavicle -3.61788e-014 1.63003e-014
lhumerus -46.8562 5.0769 76.1689
lradius 96.8976
lwrist 203.321
lhand -26.7406 12.7898
lfingers 7.12502
lthumb -0.169515 42.7695
rfemur -26.2578 0.256058 22.2415
rtibia 45.1071
rfoot -17.3908 -1.59044
rtoes -12.2335
lfemur -22.087 0.329079 -13.8249
ltibia 32.5435
lfoot 10.74 -9.24736
ltoes -37.3208
66
root 3.84379 20.8907 -7.34671 719.579 2.5367 -4.90548
lowerback 12.5433 -2.87683 2.92683
upperback 2.1789 -3.36893 0.901189
thorax -4.84676 -1.69796 -0.145986
lowerneck -12.2905 -3.74403 -1.08706
upperneck 2.26563 -5.38497 8.88637
head 3.26334 -2.33079 2.80667
rclavicle -4.17448e-014 -2.78299e-015
rhumerus -61.1508 7.54484 -88.8707
rradius 91.0775
rwrist 2.3425
rhand -10.6112 22.4972
rfingers 7.12502
rthumb 15.395 -6.9096
lclavicle -4.17448e-014 -2.78299e-015
lhumerus -46.6259 5.72258 76.0399
lradius 93.8431
lwrist 202.442
lhand -26.6816 12.8986
lfingers 7.12502
lthumb -0.1126 42.8783
rfemur -26.4063 0.259476 22.1756
rtibia 44.8779
rfoot -19.308 -2.00428
rtoes -10.1512
lfemur -22.3571 0.478445 -13.7652
ltibia 32.8591
lfoot 10.8271 -9.64832
ltoes -38.0581
67
root 3.83827 20.6349 -7.15046 719.447 2.46406 -4.97515
lowerback 12.7509 -2.88963 3.14566
upperback 2.19674 -3.34665 0.921899
thorax -4.95286 -1.69042 -0.240496
lowerneck -12.271 -3.74493 -1.00881
upperneck 2.09982 -5.37626 8.76424
head 3.19254 -2.33569 2.74914
rclavicle -2.40032e-014 1.90833e-014
rhumerus -60.5866 6.82671 -88.8302
rradius 87.8478
rwrist 2.64986
rhand -11.5219 22.5316
rfingers 7.12502
rthumb 14.5177 -6.9405
lclavicle -2.40032e-014 1.90833e-014
lhumerus -46.2764 6.40105 75.9205
lradius 90.7513
lwrist 201.333
lhand -26.4869 13.1578
lfingers 7.12502
lthumb 0.0755061 43.1375
rfemur -26.6071 0.179955 22.075
rtibia 44.7664
rfoot -21.2035 -2.48822
rtoes -8.12901
lfemur -22.5685 0.581165 -13.7805
ltibia 33.1879
lfoot 11.2112 -9.88324
ltoes -39.2608
68
root 3.83204 20.3692 -6.95386 719.363 2.36219 -5.06905
lowerback 12.8794 -2.88297 3.39382
upperback 2.21701 -3.29717 0.946333
thorax -5.01304 -1.6699 -0.356458
lowerneck -12.3172 -3.76353 -0.956342
upperneck 1.97292 -5.39408 8.67911
head 3.15214 -2.34984 2.70731
rclavicle 2.83268e-015 9.14409e-015
rhumerus -60.0074 6.18528 -88.7656
rradius 84.6657
rwrist 2.82092
rhand -12.4178 22.4733
rfingers 7.12502
rthumb 13.6544 -7.05885
lclavicle 2.83268e-015 9.14409e-015
lhumerus -45.8779 7.06824 75.7797
lradius 87.6128
lwrist 200.176
lhand -26.3319 13.0788
lfingers 7.12502
lthumb 0.225146 43.0584
rfemur -26.9125 0.122815 22.0221
rtibia 44.7868
rfoot -22.7834 -2.91703
rtoes -5.78393
lfemur -22.7832 0.621802 -13.763
ltibia 33.5444
lfoot 11.8066 -9.96778
ltoes -40.7284
69
root 3.82533 20.0902 -6.75858 719.319 2.20794 -5.13305
lowerback 12.9745 -2.85453 3.62076
upperback 2.21509 -3.22368 0.945795
thorax -5.07728 -1.63787 -0.492046
lowerneck -12.323 -3.76867 -0.878285
upperneck 1.81616 -5.39481 8.59132
head 3.0917 -2.35719 2.66136
rclavicle -4.53726e-014 1.59028e-015
rhumerus -59.4124 5.52462 -88.7131
rradius 81.5101
rwrist 2.8264
rhand -13.2662 22.2781
rfingers 7.12502
rthumb 12.8365 -7.30724
lclavicle -4.53726e-014 1.59028e-015
lhumerus -45.5854 7.7235 75.5984
lradius 84.4562
lwrist 198.964
lhand -26.0405 12.8242
lfingers 7.12502
lthumb 0.506674 42.8033
rfemur -27.3444 0.140448 21.9538
rtibia 44.9649
rfoot -24.1239 -3.37426
rtoes -3.27701
lfemur -23.0176 0.612704 -13.7596
ltibia 33.9451
lfoot 12.6269 -9.81051
ltoes -40.6387
70
root 3.81837 19.7987 -6.56447 719.278 2.00058 -5.22209
lowerback 13.0649 -2.80736 3.83841
upperback 2.19884 -3.1245 0.975336
thorax -5.15016 -1.59331 -0.595574
lowerneck -12.1991 -3.7683 -0.776343
upperneck 1.56325 -5.37704 8.41516
head 2.96766 -2.36434 2.58273
rclavicle 4.63168e-014 -1.66979e-014
rhumerus -58.7705 4.88557 -88.594
rradius 78.1805
rwrist 2.72716
rhand -14.1889 22.3794
rfingers 7.12502
rthumb 11.9469 -7.25966
lclavicle 4.63168e-014 -1.66979e-014
lhumerus -45.3436 8.30783 75.4421
lradius 81.2812
lwrist 197.907
lhand -25.5244 12.6608
lfingers 7.12502
lthumb 1.00505 42.6382
rfemur -27.867 0.232937 21.9126
rtibia 45.2958
rfoot -25.2992 -3.8691
rtoes -0.961799
lfemur -23.2595 0.637836 -13.7348
ltibia 34.4541
lfoot 13.3838 -9.6064
ltoes -39.5957
71
root 3.81158 19.4987 -6.37029 719.226 1.75711 -5.24909
lowerback 13.1739 -2.74178 4.02867
upperback 2.18659 -3.00636 0.952797
thorax -5.22901 -1.53957 -0.741454
lowerneck -12.0083 -3.76955 -0.651099
upperneck 1.21016 -5.3597 8.28799
head 2.79865 -2.37402 2.51746
rclavicle -5.889e-014 2.50469e-014
rhumerus -57.9994 4.11543 -88.4794
rradius 74.5953
rwrist 2.66803
rhand -15.2301 22.7719
rfingers 7.12502
rthumb 10.9428 -6.92292
lclavicle -5.889e-014 2.50469e-014
lhumerus -45.1401 8.81194 75.2269
lradius 78.1303
lwrist 196.891
lhand -24.9288 12.5903
lfingers 7.12502
lthumb 1.58034 42.5642
rfemur -28.434 0.347262 21.8245
rtibia 45.7515
rfoot -26.3176 -4.34819
rtoes 0.690075
lfemur -23.506 0.610288 -13.7662
ltibia 35.1627
lfoot 13.8362 -9.30884
ltoes -38.5165
72
root 3.80579 19.1955 -6.17864 719.131 1.50172 -5.24693
lowerback 13.3329 -2.67387 4.1806
upperback 2.25644 -2.88909 0.938579
thorax -5.24542 -1.48389 -0.857788
lowerneck -12.0906 -3.76132 -0.489588
upperneck 0.889834 -5.33851 8.08794
head 2.68816 -2.37685 2.41914
rclavicle 2.65874e-014 -1.63003e-014
rhumerus -56.9412 3.36631 -88.2931
rradius 70.986
rwrist 2.43819
rhand -15.985 22.8668
rfingers 7.12502
rthumb 10.2146 -6.86519
lclavicle 2.65874e-014 -1.63003e-014
lhumerus -44.7682 9.33692 75.0446
lradius 74.9477
lwrist 195.827
lhand -24.3696 12.5284
lfingers 7.12502
lthumb 2.12044 42.4976
rfemur -29.0254 0.377991 21.78
rtibia 46.3392
rfoot -27.2058 -4.95189
rtoes 0.295596
lfemur -23.7387 0.592356 -13.8364
ltibia 36.1405
lfoot 13.7884 -9.19071
ltoes -37.3273
73
root 3.79873 18.8845 -5.98831 719.009 1.21756 -5.24013
lowerback 13.5421 -2.59556 4.30633
upperback 2.36375 -2.75978 0.922637
thorax -5.24723 -1.42111 -0.962964
lowerneck -12.2748 -3.74916 -0.27918
upperneck 0.539498 -5.31834 7.85332
head 2.58354 -2.37984 2.29981
rclavicle 3.926e-015 7.95139e-015
rhumerus -55.7524 2.54034 -88.0417
rradius 67.3163
rwrist 2.39421
rhand -16.6569 22.8036
rfingers 7.12502
rthumb 9.56644 -6.95918
lclavicle 3.926e-015 7.95139e-015
lhumerus -44.4328 9.77706 74.8633
lradius 71.8338
lwrist 194.82
lhand -23.774 12.4933
lfingers 7.12502
lthumb 2.69565 42.456
rfemur -29.6038 0.438309 21.7471
rtibia 47.0382
rfoot -28.0636 -5.32877
rtoes -0.753597
lfemur -24.0165 0.54139 -13.8893
ltibia 37.486
lfoot 13.0129 -9.20755
ltoes -35.3853
74
root 3.79221 18.5687 -5.80007 718.721 0.926644 -5.11534
lowerback 13.8994 -2.51058 4.28888
upperback 2.55822 -2.63654 0.90003
thorax -5.23144 -1.35743 -0.990914
lowerneck -12.5695 -3.73452 -0.0947612
upperneck 0.17962 -5.29349 7.59679
head 2.49636 -2.37954 2.17784
rclavicle 2.60905e-014 -1.47101e-014
rhumerus -54.5653 1.75827 -87.6983
rradius 63.6774
rwrist 2.46079
rhand -17.3253 22.7709
rfingers 7.12502
rthumb 8.92143 -7.02044
lclavicle 2.60905e-014 -1.47101e-014
lhumerus -44.0217 10.219 74.7066
lradius 68.7157
lwrist 193.884
lhand -23.1986 12.5515
lfingers 7.12502
lthumb 3.25126 42.5065
rfemur -30.0702 0.46077 21.6
rtibia 47.9203
rfoot -28.9276 -5.47923
rtoes -3.38892
lfemur -24.1346 0.452947 -14.0732
ltibia 39.2171
lfoot 11.3488 -9.43807
ltoes -31.6622
75
root 3.78664 18.2341 -5.61498 718.372 0.626984 -4.90146
lowerback 14.3478 -2.43975 4.20785
upperback 2.76606 -2.53983 0.829839
thorax -5.25151 -1.30634 -1.02597
lowerneck -12.899 -3.69371 0.0423099
upperneck -0.155666 -5.23507 7.41931
head 2.42794 -2.35893 2.09357
rclavicle 2.18663e-015 1.39149e-015
rhumerus -53.5037 1.03167 -87.384
rradius 60.0821
rwrist 2.45841
rhand -18.025 22.9065
rfingers 7.12502
rthumb 8.24618 -6.91253
lclavicle 2.18663e-015 1.39149e-015
lhumerus -43.5788 10.7373 74.4232
lradius 65.6017
lwrist 193.156
lhand -22.7333 12.5832
lfingers 7.12502
lthumb 3.70068 42.5308
rfemur -30.556 0.42809 21.3718
rtibia 49.0077
rfoot -29.6278 -5.47776
rtoes -6.3787
lfemur -24.177 0.40783 -14.3857
ltibia 41.3477
lfoot 8.47965 -9.95776
ltoes -26.6495
